/* XPM */
static const char *film[]={
"33 26 122 2",
".i c #000000",
".O c #0000c0",
"#x c #010101",
"#Z c #040404",
".m c #050505",
".q c #090909",
".5 c #0c0c0c",
".H c #0d0d0d",
".u c #0e0e0e",
".b c #181818",
".f c #191919",
".e c #1c1c1c",
"#V c #212121",
".j c #2a2a2a",
"#Y c #2f2f2f",
".L c #313131",
".c c #323232",
".Q c #343434",
".r c #353535",
".G c #373737",
"#S c #383838",
".N c #393939",
"#1 c #3e3e3e",
".U c #3f3f3f",
".W c #404040",
".h c #414141",
"#X c #434343",
".a c #444444",
"#O c #464646",
".3 c #474747",
".1 c #494949",
".p c #4a4a4a",
"#K c #4d4d4d",
".9 c #4f4f4f",
"#g c #525252",
"Qt c #535353",
"#k c #555555",
"#F c #565656",
"#c c #575757",
".M c #585858",
".T c #595959",
".d c #5a5a5a",
".# c #5b5b5b",
"#N c #5c5c5c",
"#3 c #5d5d5d",
"#B c #5e5e5e",
"#h c #606060",
"#I c #616161",
"#2 c #626262",
".l c #646464",
".g c #656565",
".k c #666666",
".n c #676767",
".K c #686868",
"#p c #696969",
".I c #6b6b6b",
"#R c #6c6c6c",
"#W c #6d6d6d",
".t c #6e6e6e",
".o c #6f6f6f",
".s c #707070",
"#0 c #717171",
".v c #737373",
"#T c #747474",
".C c #757575",
".B c #767676",
"#n c #777777",
".D c #787878",
".x c #797979",
".w c #7a7a7a",
".X c #7b7b7b",
".E c #7d7d7d",
"#P c #7e7e7e",
"#J c #7f7f7f",
".y c #808080",
".z c #818181",
".A c #828282",
"#. c #838383",
".F c #848484",
"#G c #858585",
"#d c #868686",
"#C c #888888",
"#i c #8a8a8a",
"#v c #8b8b8b",
".P c #8c8c8c",
"#q c #8d8d8d",
".J c #8e8e8e",
".R c #8f8f8f",
"#Q c #929292",
"#f c #949494",
"#U c #959595",
".Y c #969696",
".S c #989898",
".V c #9a9a9a",
".Z c #9c9c9c",
"#D c #9d9d9d",
"#M c #9e9e9e",
".4 c #a0a0a0",
".0 c #a3a3a3",
".2 c #a4a4a4",
".6 c #a5a5a5",
".8 c #a6a6a6",
"#L c #a7a7a7",
"#H c #a8a8a8",
"#y c #ababab",
"## c #acacac",
".7 c #adadad",
"#z c #b1b1b1",
"#a c #b2b2b2",
"#b c #b7b7b7",
"#s c #bababa",
"#l c #bbbbbb",
"#A c #bcbcbc",
"#E c #bebebe",
"#j c #bfbfbf",
"#e c #c1c1c1",
"#w c #c3c3c3",
"#t c #c6c6c6",
"#u c #c7c7c7",
"#r c #c8c8c8",
"#m c #cbcbcb",
"#o c #cccccc",
"QtQtQtQtQtQtQtQtQtQtQtQtQtQtQtQtQtQtQtQtQtQtQtQtQtQtQtQtQtQtQtQtQt",
".#.a.b.b.c.#.#.#.#.#.#.#.#.#.#.#.#.#.#.#.#.#.#.#.#.#.#.d.e.b.f.d.#",
".g.h.i.i.j.k.g.g.g.g.g.g.g.g.g.g.g.g.g.g.g.g.g.g.g.g.g.l.m.i.i.n.g",
".o.p.q.q.r.s.o.o.o.o.o.o.o.o.o.o.o.o.o.o.o.o.o.o.o.o.o.t.u.q.q.v.o",
".w.x.y.z.A.w.B.C.C.C.C.C.C.C.C.C.C.C.C.C.C.C.C.C.C.C.D.w.E.z.z.E.w",
".F.F.F.F.F.F.G.H.H.H.H.H.H.H.H.H.H.H.H.H.H.H.H.H.H.H.I.F.F.F.F.F.F",
".J.K.L.c.M.J.N.O.O.O.O.O.O.O.O.O.O.O.O.O.O.O.O.O.O.O.C.P.c.c.Q.R.J",
".S.T.i.i.U.V.W.O.O.O.O.O.O.O.O.O.O.O.O.O.O.O.O.O.O.O.X.Y.i.i.i.Z.S",
".0.l.H.H.1.2.3.O.O.O.O.O.O.O.O.O.O.O.O.O.O.O.O.O.O.O.y.4.5.H.H.6.0",
".7.6.2.8.7.7.9.O.O.O.O.O.O.O.O.O.O.O.O.O.O.O.O.O.O.O#.##.4.8.8#a.7",
"#b#b#b#b#b#b#c.O.O.O.O.O.O.O.O.O.O.O.O.O.O.O.O.O.O.O#d#b#b#b#b#b#b",
"#e#f#g#g.X#e#h.O.O.O.O.O.O.O.O.O.O.O.O.O.O.O.O.O.O.O#i#jQt#g#k#l#e",
"#m#n.i.i.U#o#p.O.O.O.O.O.O.O.O.O.O.O.O.O.O.O.O.O.O.O#q#r.i.i.i#s#m",
"#t.C.i.i.U#u.n.O.O.O.O.O.O.O.O.O.O.O.O.O.O.O.O.O.O.O#v#w#x.i.i#b#t",
"#l#y.2.6#z#A#B.O.O.O.O.O.O.O.O.O.O.O.O.O.O.O.O.O.O.O#C#l#D.6.6#E#l",
"#a#a#a#a#a#a#F.O.O.O.O.O.O.O.O.O.O.O.O.O.O.O.O.O.O.O#G#a#a#a#a#a#a",
"#H#v#I#I#J#H#K.O.O.O.O.O.O.O.O.O.O.O.O.O.O.O.O.O.O.O.z#L#I#I.l#L#H",
"#M#N.i.i.U.4#O.O.O.O.O.O.O.O.O.O.O.O.O.O.O.O.O.O.O.O#P.Z.i.i.i.4#M",
"#f#F.i.i.U.Y.U.O.O.O.O.O.O.O.O.O.O.O.O.O.O.O.O.O.O.O.w#Q.i.i.i.V#f",
"#v.X#R.t#..P#S.O.O.O.O.O.O.O.O.O.O.O.O.O.O.O.O.O.O.O#T#v.K.t.t#U#v",
".z.z.z.z.z.z.h#V#V#V#V#V#V#V#V#V#V#V#V#V#V#V#V#V#V#V.C.z.z.z.z.z.z",
"#n.I.M.T.g#n.B#n#n#n#n#n#n#n#n#n#n#n#n#n#n#n#n#n#n#n.D.B.T.T.d.B#n",
"#W#X#x#x#Y.o#W#W#W#W#W#W#W#W#W#W#W#W#W#W#W#W#W#W#W#W#W#R#Z#x#x#0#W",
".l#1.i.i.j.g.l.l.l.l.l.l.l.l.l.l.l.l.l.l.l.l.l.l.l.l.l#2#Z.i.i.n.l",
".d#K#S.N.p.d.d.d.d.d.d.d.d.d.d.d.d.d.d.d.d.d.d.d.d.d.d.T.N.N.N#3.d",
"QtQtQtQtQtQtQtQtQtQtQtQtQtQtQtQtQtQtQtQtQtQtQtQtQtQtQtQtQtQtQtQtQt"};
