/* XPM */
static const char *sreload[ ]={
"22 22 5 1",
". c None",
"c c #0000ff",
"b c #0080ff",
"a c #58a8ff",
"# c #c3c3c3",
"......................",
"......................",
"........####.#........",
"........##aa##........",
"........bbbbbb........",
".......bbbbbbbb.......",
"......bbbb....bb......",
".....abbb.............",
"....abbba##....c......",
"...cccccccc...ccc.....",
"....ccccc....ccccc....",
".....ccc....ccccccc...",
"......c......abbba....",
".............bbba.....",
"......bb....bbbb......",
".......bbbbbbbb#......",
".......#bbbbb.........",
".........aaa..........",
"......................",
"......................",
"......................",
"......................"
};
